PathFileType	4	(X/Y/Z)	Patient4_TMGait_0pt8_01_left_02.trc.trc
DataRate	CameraRate	NumFrames	NumMarkers	Units	OrigDataRate	OrigDataStartFrame	OrigNumFrames
86.419753086420	86.419753086420	6	33	mm	86.419753086420	106	       141
Frame#	Time	Sacral			L.Shoulder			Chest			R.Shoulder			Neck			R.ASIS			L.ASIS			R.Thigh.Superior			R.Thigh.Lateral			R.Thigh.Inferior			R.Patella			L.Thigh.Superior			L.Thigh.Lateral			L.Thigh.Inferior			L.Patella			L.Shank.Superior			L.Shank.Lateral			L.Shank.Inferior			R.Shank.Superior			R.Shank.Lateral			R.Shank.Inferior			R.Heel			R.Midfoot.Superior			R.Midfoot.Lateral			R.Toe			L.Heel			L.Midfoot.Lateral			L.Midfoot.Superior			L.Toe			L.Elbow			L.Wrist			R.Elbow			R.Wrist			
		X1	Y1	Z1	X2	Y2	Z2	X3	Y3	Z3	X4	Y4	Z4	X5	Y5	Z5	X6	Y6	Z6	X7	Y7	Z7	X8	Y8	Z8	X9	Y9	Z9	X10	Y10	Z10	X11	Y11	Z11	X12	Y12	Z12	X13	Y13	Z13	X14	Y14	Z14	X15	Y15	Z15	X16	Y16	Z16	X17	Y17	Z17	X18	Y18	Z18	X19	Y19	Z19	X20	Y20	Z20	X21	Y21	Z21	X22	Y22	Z22	X23	Y23	Z23	X24	Y24	Z24	X25	Y25	Z25	X26	Y26	Z26	X27	Y27	Z27	X28	Y28	Z28	X29	Y29	Z29	X30	Y30	Z30	X31	Y31	Z31	X32	Y32	Z32	X33	Y33	Z33	

106	2.505000000000	754.092350048345	1016.385687946050	502.423262718284	959.147742655390	1436.711503332486	333.770106234907	1058.463637208416	1353.566371674786	491.098851215535	986.156658917396	1428.720260425768	669.913960724434	965.566221414446	1493.886859507562	492.152285891782	978.522537633753	943.770566003087	620.003582498960	964.835029555907	962.433298130520	345.615501157255	1001.228174201262	738.414159169803	596.348643339777	906.752411302074	636.379292566682	650.346038595227	984.488973191928	578.133083474824	576.241605563051	977.000722143229	492.784059875165	580.883767216929	1048.377955165249	795.455651168673	370.021574326926	1015.181519443701	666.685635131121	287.329831592675	1124.012975022206	611.864303944465	347.395925702405	1146.437798376681	525.799989052620	336.959986478293	1091.716744183295	451.116485940505	332.397534131795	959.748181140197	380.950156644800	289.307502788281	977.244891784179	252.071012685970	344.692783653426	948.063284623826	405.809491949116	585.416123566334	869.852103069163	302.864349433254	640.254525787680	916.931868973233	207.902091888589	579.696150191552	785.013822942130	42.631173512007	536.554719131058	955.217866597968	98.383327277674	584.139508437829	864.608299412238	36.607568914947	616.025869446987	1072.728151521643	45.047454570828	616.172539228702	808.156814070963	143.707933108939	391.793906688405	869.876033630018	115.459743305520	306.735599699244	970.982641779130	150.032124635461	323.383366755556	1072.547435308248	62.596317195321	286.133611925120	836.379652466281	1103.972374565458	229.911680573718	836.755209576544	842.388739423091	227.722377292476	1040.550275722230	1080.501031027423	776.244492978480	1247.814263218363	924.231228348819	752.719270629761	
107	2.516571428571	752.622460805155	1016.421464595879	503.628160144430	958.061260796313	1436.254008160636	334.227841750726	1058.062353060690	1352.678300574757	490.860172837369	987.368934810264	1428.108628785314	670.317038089569	965.552188514061	1493.307576091960	492.584881676504	977.532490705415	943.161669670654	620.026092823215	962.627811569591	962.246070851336	345.550546006982	997.729223572910	737.254747134461	595.187736083004	902.654275680524	636.076751873391	650.326734162038	978.679210387129	577.023499047027	575.397541738976	970.222555493342	492.034791402551	579.965185403591	1047.054562825697	797.304086817019	371.256883246038	1016.667487873397	668.347908645895	287.879522868915	1125.247680549709	614.861233015491	349.117339831442	1149.719727174270	530.176206578232	338.270473343291	1098.524342112452	454.109777639094	333.016992709296	971.063975078927	377.022522489344	288.777667269097	995.416843350580	248.859238700546	343.833449553307	940.952852678066	405.254016207441	584.730595411472	862.706859024333	302.660247631688	640.227219696387	908.646000198416	207.508976014533	579.153748739109	775.760247215387	42.656809240992	536.535255098481	945.952585178485	98.209356619486	583.988125920661	855.308527486846	36.622758773673	615.948824218095	1063.476044255219	44.594270614142	616.204995094281	832.421339821909	131.437239824625	389.605608096569	896.038546238681	106.676229939697	304.928482695243	995.136866942301	146.296017070768	322.330590859089	1101.302037480255	64.201415083430	285.648632375376	829.562034074999	1105.853996052955	230.841919993792	819.493645815245	844.748509515597	228.892135632458	1049.247039697352	1081.835606645981	776.140462755917	1266.133506498682	940.746200304696	748.156122638791	
108	2.528142857143	751.289580874859	1016.343464228638	504.804851848235	957.015045032316	1435.710959852513	334.554250536245	1057.726285545385	1351.691256552544	490.465798662223	988.630230174404	1427.393887584747	670.530152322176	965.587938889387	1492.632663429270	492.873040560111	976.670270606032	942.501387118670	619.892264201126	960.462725958068	961.897569256933	345.326681212280	994.344250727450	736.076967407839	593.986250485111	898.655455533096	635.758249784953	650.327775405559	972.943517641984	575.901137292626	574.602887685587	963.507684398600	491.262220234152	579.157060477675	1045.458779534056	798.695288686960	372.370089546950	1017.501707072777	669.571667962124	288.382504291503	1125.673865645603	617.176259203623	350.730996203011	1152.044821440068	534.043831358303	339.564952421169	1104.551406828146	456.849263709329	333.698165210664	982.341754868810	372.859078901565	288.049979269835	1013.602358689656	245.921991350344	343.010921652829	933.848446292851	404.692047136499	584.139076170014	855.523209095603	302.467361249166	640.257865259891	900.329784279546	207.129540615321	578.682435616928	766.503569480828	42.681067489110	536.553605299618	936.684022480721	98.045740199885	583.862623974417	845.997983141831	36.627127773759	615.882274055615	1054.218494084890	44.171924932120	616.225673176728	857.337122194668	119.660948986882	387.193171212189	922.933064058944	98.394833395347	303.164673897581	1019.638418436693	143.048262569893	321.494580356893	1130.238982146811	66.570114014641	285.920013594585	823.274371183032	1107.632569707412	231.527063413792	803.455044923974	847.370441109591	229.903354460784	1057.383115538966	1083.192155731292	775.817352590675	1282.882950169543	958.310406086701	743.243384757987	
109	2.539714285714	750.133721931050	1016.168158669606	505.935693683460	956.021452555910	1435.112285733029	334.747973182983	1057.457197534078	1350.638102177974	489.921106935348	989.908901234503	1426.591617445470	670.533383423188	965.666415325185	1491.885811347967	493.022030280187	975.940296654192	941.808191243150	619.616013357615	958.384782173290	961.404891330954	344.962086381933	991.076942774360	734.884454634805	592.828066168759	894.701434272798	635.439471100015	650.356007396770	967.265471366955	574.775857988278	573.910021970432	956.840244941458	490.473702146448	578.495867775569	1043.621071626125	799.599030620452	373.317028281609	1017.628447114297	670.306401980343	288.801318275615	1125.296595225181	618.752768467414	352.140208584329	1153.391450020994	537.343119518641	340.792610761993	1109.745907595031	459.310587088474	334.415938517379	993.507696489849	368.534662734741	287.135106449131	1031.650196727063	243.357388563141	342.254552669829	926.730578407020	404.137837598221	583.663657731372	848.264162959730	302.302375310054	640.347634578765	891.967548589864	206.776734584630	578.303583323306	757.238311479965	42.705137216567	536.610444660423	927.410118211352	97.895113019986	583.767866462108	836.676052263268	36.619174652251	615.830457965064	1044.953942930770	43.792093249646	616.237562528654	882.715565843719	108.585471205541	384.629291774202	950.369154029103	90.779795481717	301.520181659812	1044.300436658240	140.408294876321	320.909968652336	1159.120231503770	69.789421002406	287.001965729419	817.501401798312	1109.315002863389	231.993073298007	788.667710097204	850.170039397414	230.767544296467	1064.998957304524	1084.550433364184	775.246291529364	1297.946865580687	976.738263909807	738.038143125080	
110	2.551285714286	749.182956705334	1015.910497182159	506.997576633211	955.093794314412	1434.481855431960	334.806450350183	1057.255334015066	1349.550197427415	489.234223887485	991.177032385326	1425.724717026991	670.315575076382	965.777593905020	1491.088517852649	493.034279632808	975.349984651559	941.093162724186	619.217364854541	956.440920339319	960.785304683616	344.474251957463	987.931224804332	733.675115665916	591.791261436705	890.747354173508	635.131079990700	650.409557238915	961.637761618952	573.655941279575	573.355522147609	950.217159852378	489.673465676997	577.998368361197	1041.580954005436	799.986582717114	374.052904771706	1017.016492202994	670.506495157718	289.098185465612	1124.145995360853	619.546792891578	353.265345038864	1153.763139967518	540.020600092430	341.915303353213	1114.069057156795	461.465675914988	335.138008387038	1004.446147463032	364.122267985523	286.070917717349	1049.376213153884	241.233216110138	341.585768917332	919.592990644952	403.601139192434	583.310536239320	840.911479145919	302.178032461551	640.489530083829	883.553854369752	206.458705552940	578.026476021896	747.961384434514	42.731383555481	536.701849708016	918.129229345006	97.757409053462	583.702955630670	827.343526185871	36.599188644309	615.795319733470	1035.682032318231	43.459705688365	616.244145054724	908.313379545544	98.373768172895	382.013368140769	978.080115078426	83.953114988112	300.069731002589	1068.880040814924	138.457315759542	320.585212222518	1187.654440098206	73.895524832657	288.871415039883	812.213713235788	1110.912834734577	232.263692991140	775.138788196372	853.068231944742	231.490567204846	1072.140278262014	1085.902099683762	774.400266074967	1311.244526502420	995.811678473763	732.604739032760	
111	2.562857142857	748.453183264138	1015.579995886251	507.962667602609	954.243958885804	1433.834766169983	334.726330565075	1057.118787333269	1348.454345732454	488.415611844120	992.411120624800	1424.820224317308	669.875762055385	965.908339173123	1490.257807297365	492.909197589157	974.909596414618	940.359186872745	618.720095351401	954.678596888942	960.052450571671	343.879331879170	984.914121526425	732.442174329450	590.937051367474	886.767044400948	634.837442177630	650.477561645691	956.066905754633	572.546741149761	572.954315676932	943.651391698092	488.861583751454	577.659658026708	1039.389014591647	799.833749198495	374.537569628253	1015.669128305479	670.136409162000	289.240437969935	1122.280814546097	619.532736675377	354.052097761413	1153.195462578704	542.032074942702	342.907973521970	1117.499301917029	463.281399635955	335.825953351888	1014.995698376647	359.688540577519	284.925894475797	1066.560321864386	239.580312900285	341.019761599983	912.445864833742	403.085038489685	583.069964792158	833.468902604020	302.102146611905	640.668744945642	875.095630514395	206.177656806236	577.847816132620	738.672490020549	42.763515208570	536.820502770136	908.840490700815	97.629834999340	583.661198200738	818.002749548664	36.569316391043	615.776171372969	1026.403507018194	43.172677292057	616.249072354104	933.824945063797	89.139142238120	379.478173967427	1005.707976142479	77.988984905945	298.887439343711	1093.067316748468	137.230914325462	320.504334111751	1215.485133856966	78.864821068814	291.416414999272	807.372460001848	1112.437593062320	232.359493699215	762.860343321035	855.990099034976	232.072124899112	1078.853671039253	1087.247681293362	773.258734974253	1322.735408720841	1015.286281614872	727.011185462862	
